<svg width="224" height="62" color="white" viewBox="0 0 224 62" fill="#f2f2f2" xmlns="http://www.w3.org/2000/svg">
<path color="white" d="M221.993 60.6193C218.782 61.1092 214.903 62 202.996 62C189.974 62 179.896 58.4813 179.896 41.5115V20.4885C179.896 3.51868 190.019 0 202.996 0C214.903 0 218.782 0.890794 221.993 1.38074C223.509 1.5589 224 2.09339 224 3.47413V9.93247C224 11.046 223.108 11.9368 221.993 11.9368H201.569C195.771 11.9368 193.675 13.9411 193.675 20.533V24.5417H220.789C221.904 24.5417 222.796 25.4325 222.796 26.546V33.7615C222.796 34.875 221.904 35.7658 220.789 35.7658H193.675V41.6006C193.675 48.1925 195.771 50.1968 201.569 50.1968H221.993C223.108 50.1968 224 51.0876 224 52.2011V58.6149C224 59.9066 223.509 60.4411 221.993 60.6193Z" fill="#f2f2f2"/>
<path d="M104.397 3.4296L94.4965 58.8377C94.2736 59.8621 93.4709 60.7529 92.4898 60.7529H91.4641C90.5722 60.7529 90.037 60.0402 90.037 59.2385C90.037 59.0158 90.037 58.9267 90.037 58.8377L99.9371 3.4296C100.16 2.40517 100.963 1.51437 101.944 1.51437H102.97C103.861 1.51437 104.397 2.22701 104.397 3.02874C104.397 3.25144 104.397 3.34052 104.397 3.4296Z" fill="#f2f2f2"/>
<path d="M79.1113 3.2069L70.9504 52.6466C70.0585 58.9267 67.1599 60.7529 61.9423 60.7529H56.5463C52.0422 60.7529 49.6341 58.5704 48.2516 52.7802L40.3584 27.9267C40.18 27.0359 40.18 26.8132 39.7786 26.8132C39.3773 26.8132 39.2881 26.9914 39.0651 27.9267L31.1272 52.7802C29.7448 58.5704 27.3367 60.7529 22.8326 60.7529H17.392C12.1744 60.7529 9.27573 58.9713 8.38383 52.6466L0 3.2069C0 3.11782 0 3.02874 0 2.89512C0 2.00432 0.802707 1.51437 1.6946 1.51437H12.3082C13.1109 1.51437 13.9136 2.22702 14.0028 3.29598L20.2015 47.1236C20.2907 48.0144 20.2907 48.6379 20.692 48.6379C21.0934 48.6379 21.0934 48.0589 21.2718 47.1236L29.8786 20.1767C30.4583 17.7716 31.8853 15.6782 36.1664 15.6782H43.0786C47.3597 15.6782 48.7868 17.7716 49.3665 20.1767L57.9733 47.1236C58.1517 48.0144 58.1517 48.6379 58.5531 48.6379C58.9544 48.6379 58.9544 48.0589 59.0436 47.1236L65.0193 3.29598C65.1085 2.18248 65.9112 1.51437 66.7139 1.51437H77.3275C78.2194 1.51437 79.0221 2.00432 79.0221 2.89512C79.1113 3.02874 79.1113 3.11782 79.1113 3.2069Z" fill="#f2f2f2"/>
<path d="M164.689 1.51437H163.485C162.459 1.51437 161.746 2.40517 161.567 3.4296L152.381 55.6753C152.291 56.0762 151.756 56.477 151.667 56.477H151.623C151.578 56.477 151.578 56.477 151.533 56.477C151.221 56.4325 151.132 56.1652 151.043 55.8089L134.498 4.67673C133.874 2.93966 132.581 1.55892 129.949 1.55892C129.816 1.55892 129.682 1.55892 129.548 1.55892C129.503 1.55892 129.414 1.55892 129.37 1.55892C127.363 1.78162 125.044 3.07328 124.42 6.45834L115.099 58.8377C115.099 58.9267 115.099 59.0604 115.099 59.2385C115.099 60.0402 115.59 60.7529 116.526 60.7529H117.552C118.578 60.7529 119.38 59.8621 119.559 58.8377L128.879 6.45834C128.968 6.01294 129.191 5.83478 129.37 5.79024C129.414 5.79024 129.414 5.7457 129.459 5.7457C129.503 5.7457 129.503 5.7457 129.548 5.7457C129.905 5.79024 130.262 6.05748 130.351 6.45834L146.895 57.5014C147.698 60.0402 149.036 60.7529 151.533 60.7529H151.578C154.075 60.7084 156.305 58.9267 156.885 55.7198L166.071 3.47414C166.071 3.38506 166.071 3.16236 166.071 3.07328C166.116 2.22702 165.714 1.51437 164.689 1.51437Z" fill="#f2f2f2"/>
</svg>
